<?xml version="1.0" standalone="no"?>
<!DOCTYPE svg PUBLIC "-//W3C//DTD SVG 20010904//EN"
 "http://www.w3.org/TR/2001/REC-SVG-20010904/DTD/svg10.dtd">
<svg version="1.0" xmlns="http://www.w3.org/2000/svg"
 width="193.000000pt" height="166.000000pt" viewBox="0 0 193.000000 166.000000"
 preserveAspectRatio="xMidYMid meet">
<metadata>
Created by potrace 1.10, written by Peter Selinger 2001-2011
</metadata>
<g transform="translate(0.000000,166.000000) scale(0.100000,-0.100000)"
fill="#000000" stroke="none">
<path d="M1176 1154 c-3 -9 -4 -20 0 -25 3 -5 -16 -9 -41 -9 -43 0 -48 -3 -58
-30 -6 -17 -16 -28 -22 -26 -5 2 -18 -3 -27 -11 -20 -18 -38 -9 -38 18 0 16
-7 19 -40 19 -33 0 -40 -3 -40 -19 0 -27 -14 -33 -44 -20 -23 11 -28 9 -46
-11 -22 -25 -26 -40 -10 -40 6 0 10 -9 10 -20 0 -19 -10 -24 -37 -21 -9 1 -13
-12 -13 -39 0 -34 3 -40 20 -40 26 0 36 -25 19 -46 -10 -13 -8 -19 14 -41 22
-22 28 -24 41 -14 27 23 43 5 55 -62 14 -80 14 -77 -4 -77 -8 0 -15 -4 -15
-10 0 -6 -27 -10 -60 -10 -71 0 -73 -3 -68 -120 l3 -75 65 -1 c36 -1 79 -7 95
-14 17 -7 73 -15 125 -18 109 -5 137 3 214 62 36 28 51 35 56 25 5 -7 6 -18 3
-26 -4 -9 6 -13 36 -13 35 0 41 3 41 20 0 26 25 36 46 19 13 -10 19 -8 41 14
22 22 24 28 14 41 -17 21 -7 46 19 46 17 0 20 6 20 40 0 36 -2 40 -25 40 -18
0 -25 5 -25 20 0 11 5 20 10 20 18 0 10 21 -17 45 -26 22 -29 22 -46 7 -29
-26 -41 -1 -42 90 l0 82 70 0 70 1 3 75 c4 112 1 120 -56 120 -27 0 -72 11
-107 25 -74 30 -199 36 -209 9z m202 -34 l42 -19 0 -76 c0 -71 -1 -75 -22 -75
-13 0 -47 -3 -75 -6 l-53 -7 0 45 c0 53 22 90 41 71 18 -18 39 -16 39 2 0 8
-6 15 -13 15 -7 0 -23 11 -35 25 -17 19 -32 25 -62 25 -22 0 -40 5 -40 10 0
18 132 11 178 -10z m-98 -40 c0 -6 -37 -10 -90 -10 -53 0 -90 4 -90 10 0 6 37
10 90 10 53 0 90 -4 90 -10z m240 -65 l0 -75 -35 0 -35 0 0 75 0 75 35 0 35 0
0 -75z m-555 33 c8 -18 18 -23 45 -23 36 0 52 -13 64 -51 5 -17 2 -23 -15 -27
-15 -4 -28 3 -48 25 -57 64 -151 24 -151 -63 0 -11 14 -34 30 -51 32 -32 44
-72 14 -47 -12 10 -20 10 -34 1 -23 -14 -34 -1 -25 28 8 24 -11 60 -30 60 -23
0 -18 19 11 44 19 15 25 28 20 42 -10 34 -6 39 32 39 29 0 39 5 47 23 5 12 14
22 20 22 6 0 15 -10 20 -22z m285 -18 c0 -6 -37 -10 -90 -10 -53 0 -90 4 -90
10 0 6 37 10 90 10 53 0 90 -4 90 -10z m0 -50 c0 -13 -50 -13 -70 0 -11 7 -4
10 28 10 23 0 42 -4 42 -10z m-264 -14 c26 -19 14 -28 -23 -17 -18 5 -34 7
-37 3 -3 -3 -6 -26 -6 -51 0 -42 -1 -44 -16 -29 -53 53 21 138 82 94z m215
-23 c22 -12 57 -18 101 -18 l68 0 0 -132 c0 -171 -17 -223 -99 -304 -52 -51
-101 -79 -101 -59 0 5 6 10 14 12 25 5 135 139 147 177 6 20 13 89 16 154 l5
117 -43 0 c-24 1 -68 9 -96 19 -51 17 -55 17 -105 0 -29 -10 -73 -18 -96 -19
l-44 0 4 -115 c2 -87 0 -115 -9 -115 -10 0 -13 33 -13 133 l0 132 68 0 c43 0
78 6 97 16 39 22 46 22 86 2z m-51 -183 c0 -115 -3 -140 -14 -140 -8 0 -16 10
-18 23 -3 19 -10 22 -60 25 l-58 3 0 99 0 100 43 0 c23 1 56 7 72 15 17 7 31
14 33 14 1 1 2 -62 2 -139z m131 110 l41 0 -4 -117 c-3 -97 -8 -125 -26 -160
-12 -23 -26 -44 -32 -48 -14 -9 -40 19 -40 44 0 14 -8 23 -25 27 l-25 6 0 139
0 138 35 -15 c19 -7 53 -14 76 -14z m193 -176 c-5 -26 -1 -35 20 -52 29 -22
34 -42 11 -42 -21 0 -37 -35 -29 -66 6 -25 5 -26 -20 -20 -31 8 -66 -8 -66
-29 0 -22 -19 -18 -41 8 -25 30 -24 37 11 37 91 0 133 91 70 150 -16 15 -30
32 -30 37 0 4 18 8 40 8 40 1 40 1 34 -31z m-55 -38 c7 -8 11 -30 9 -48 -2
-25 -10 -36 -31 -46 -16 -8 -31 -12 -33 -9 -6 6 29 117 37 117 4 0 12 -6 18
-14z m-324 -26 c-3 -5 -19 -10 -36 -10 -19 0 -29 -5 -29 -15 0 -12 16 -15 85
-15 50 0 85 -4 85 -10 0 -6 -35 -10 -85 -10 -69 0 -85 -3 -85 -15 0 -12 17
-15 95 -15 57 0 95 -4 95 -10 0 -6 -38 -10 -95 -10 -78 0 -95 -3 -95 -15 0
-12 16 -15 85 -15 50 0 85 -4 85 -10 0 -6 -35 -10 -86 -10 -64 0 -85 -3 -82
-12 3 -8 27 -14 61 -16 32 -2 57 -8 57 -14 0 -18 -192 -6 -223 15 -25 16 -27
22 -27 91 l0 74 38 15 c42 18 167 23 157 7z m-225 -115 l0 -75 -35 0 -35 0 0
75 0 75 35 0 35 0 0 -75z"/>
<path d="M1345 1010 c-28 -11 -50 -39 -39 -50 5 -5 23 3 42 20 35 29 33 44 -3
30z"/>
</g>
</svg>
